<?xml version="1.0" encoding="utf-8"?>
<!-- Generator: Adobe Illustrator 27.5.0, SVG Export Plug-In . SVG Version: 6.00 Build 0)  -->
<svg version="1.1" id="Capa_1" xmlns="http://www.w3.org/2000/svg" xmlns:xlink="http://www.w3.org/1999/xlink" x="0px" y="0px"
	 viewBox="0 0 425.2 425.2" style="enable-background:new 0 0 425.2 425.2;" xml:space="preserve">
<rect x="0.001" y="0.001" style="fill:#FFFFFF;" width="425.198" height="425.198"/>
<path style="fill:#B2B2B2;" d="M270.002,329.726c0,7.907-48.797,14.318-108.991,14.318S52.02,337.633,52.02,329.726
	c0-7.908,48.797-14.319,108.991-14.319S270.002,321.817,270.002,329.726z"/>
<path style="fill:#B2B2B2;" d="M369.02,358.055c0,10.159-43.097,18.396-96.261,18.396c-53.163,0-96.26-8.237-96.26-18.396
	c0-10.16,43.097-18.397,96.26-18.397C325.922,339.657,369.02,347.895,369.02,358.055z"/>
<g>
	<g>
		<path style="fill:#1B1B1A;" d="M243.731,313.022c0,10.209-8.278,18.483-18.486,18.483H88.04c-10.207,0-18.484-8.275-18.484-18.483
			V81.814c0-10.209,8.277-18.483,18.484-18.483h137.205c10.208,0,18.486,8.274,18.486,18.483V313.022z"/>
		<rect x="82.196" y="82.078" style="fill:#FFFFFF;" width="148.895" height="219.268"/>
		<path d="M178.104,315.406c0,3.49-2.828,6.317-6.318,6.317h-27.713c-3.488,0-6.316-2.827-6.316-6.317l0,0
			c0-3.486,2.828-6.316,6.316-6.316h27.713C175.276,309.09,178.104,311.92,178.104,315.406L178.104,315.406z"/>
		<path style="fill:#3C3C3B;" d="M175.387,315.406c0,2.701-2.188,4.894-4.89,4.894h-25.468c-2.7,0-4.892-2.192-4.892-4.894l0,0
			c0-2.699,2.192-4.89,4.892-4.89h25.468C173.199,310.517,175.387,312.707,175.387,315.406L175.387,315.406z"/>
		<g>
			<path d="M168.357,71.863c0,2.025-1.64,2.839-3.668,2.839h-16.092c-2.026,0-3.669-0.813-3.669-2.839l0,0
				c0-2.025,1.643-2.842,3.669-2.842h16.092C166.717,69.021,168.357,69.838,168.357,71.863L168.357,71.863z"/>
			<path style="fill:#3C3C3B;" d="M166.778,71.863c0,1.568-1.271,2.013-2.838,2.013h-14.788c-1.567,0-2.841-0.444-2.841-2.013l0,0
				c0-1.568,1.274-2.012,2.841-2.012h14.788C165.507,69.852,166.778,70.295,166.778,71.863L166.778,71.863z"/>
		</g>
	</g>
	<g>
		<path style="fill:#B78526;" d="M213.885,174.188c-0.002-0.094-0.004-0.188-0.007-0.283h-0.474l-54.961-32.264l-58.528,32.264
			H99.41c-0.003,0.096-0.005,0.189-0.008,0.283H99.4v0.104v11.253v52.695c0,7.111,5.764,12.875,12.875,12.875h88.738
			c7.11,0,12.875-5.764,12.875-12.875v-52.695v-11.253v-0.104H213.885z"/>
		<rect x="99.41" y="173.904" style="fill:#F9B233;" width="114.478" height="1.799"/>
		<g>
			<rect x="117.811" y="141.717" style="fill:#DADADA;" width="76.7" height="95.665"/>
			<g>
				<g>
					<rect x="127.36" y="157.839" style="fill:#FFFFFF;" width="56.633" height="1.917"/>
					<rect x="127.36" y="161.007" style="fill:#FFFFFF;" width="56.633" height="1.916"/>
					<rect x="127.36" y="164.174" style="fill:#FFFFFF;" width="56.633" height="1.916"/>
				</g>
				<g>
					<rect x="127.36" y="177.556" style="fill:#FFFFFF;" width="56.633" height="1.916"/>
					<rect x="127.36" y="180.725" style="fill:#FFFFFF;" width="56.633" height="1.915"/>
					<rect x="127.36" y="183.891" style="fill:#FFFFFF;" width="56.633" height="1.918"/>
				</g>
				<g>
					<rect x="127.36" y="197.768" style="fill:#FFFFFF;" width="56.633" height="1.917"/>
					<rect x="127.36" y="200.938" style="fill:#FFFFFF;" width="56.633" height="1.916"/>
					<rect x="127.36" y="204.104" style="fill:#FFFFFF;" width="56.633" height="1.917"/>
				</g>
				<g>
					<rect x="127.36" y="217.986" style="fill:#FFFFFF;" width="56.633" height="1.916"/>
					<rect x="127.36" y="221.154" style="fill:#FFFFFF;" width="56.633" height="1.915"/>
					<rect x="127.36" y="224.32" style="fill:#FFFFFF;" width="56.633" height="1.916"/>
				</g>
			</g>
		</g>
		<path style="fill:#F9B233;" d="M213.888,174.291v63.948c0,7.111-5.765,12.875-12.875,12.875h-88.738
			c-7.11,0-12.875-5.764-12.875-12.875v-63.948l57.243,38.411L213.888,174.291z"/>
		<polygon style="fill:#FFFFFF;" points="156.643,212.702 99.4,174.291 99.4,177.128 156.643,215.541 213.888,177.128 
			213.888,174.291 		"/>
	</g>
	<g>
		<g>
			
				<path style="fill:none;stroke:#2C343F;stroke-width:2.8756;stroke-linecap:round;stroke-linejoin:round;stroke-miterlimit:10;" d="
				M340.671,207.393l-0.097-4.963c0,0-0.271-3.77-3.543-5.976c0,0-9.922-6.107-10.727-29.823c0,0-1.34-32.953-39.72-32.246
				l-17.877,0.334"/>
			
				<path style="fill:none;stroke:#2C343F;stroke-width:2.8756;stroke-linecap:round;stroke-linejoin:round;stroke-miterlimit:10;" d="
				M207.489,209.86l-0.09-4.965c0,0,0.13-3.776,3.316-6.101c0,0,9.691-6.469,9.617-30.199c0,0,0.119-32.982,38.498-33.695
				l17.879-0.33"/>
		</g>
		<g>
			<g>
				
					<rect x="233.514" y="205.493" transform="matrix(0.9998 -0.0185 0.0185 0.9998 -4.5427 5.0837)" style="fill:#745615;" width="76.985" height="84.275"/>
				<path style="fill:#F7C7AD;" d="M318.778,280.734c-19.261-1.814-28.83-7.321-30.467-8.346l-34.227,0.635
					c-1.602,1.085-10.962,6.942-30.143,9.469c0,0-36.606,2.049-34.35,68.452c0,0,27.795,11.921,83.257,10.788
					c55.459-0.923,82.795-13.869,82.795-13.869C355.44,281.424,318.778,280.734,318.778,280.734z"/>
				<path style="fill:#FFFFFF;" d="M223.941,282.492c0,0-36.606,2.049-34.35,68.452c0,0,27.795,11.921,83.257,10.788
					c55.459-0.923,82.795-13.869,82.795-13.869c-0.203-66.44-36.866-67.129-36.866-67.129s-35.723-1.87-47.184,13.534
					C271.594,294.268,259.93,275.799,223.941,282.492z"/>
				<g>
					
						<rect x="253.613" y="254.238" transform="matrix(0.9998 -0.0185 0.0185 0.9998 -4.8985 5.0676)" style="fill:#F7C7AD;" width="34.954" height="25.42"/>
					<path style="fill:#DADADA;" d="M253.514,261.809v0.006c0.394,0.451,0.789,0.897,1.213,1.315
						c1.114,1.106,2.264,2.172,3.507,3.134c0.042,0.035,0.072,0.058,0.11,0.089c0.397,0.278,0.801,0.553,1.213,0.819
						c0.622,0.406,1.253,0.81,1.904,1.175c0.94,0.537,1.894,1.053,2.875,1.516c0.313,0.115,1.237,0.478,1.516,0.569
						c0.949,0.302,1.895,0.597,2.863,0.832c0.996,0.241,1.987,0.479,2.992,0.653c-0.26-0.045,2.651,0.388,1.955,0.336
						c2.356,0.22,4.73,0.355,7.101,0.265c1.013-0.037,2.034-0.076,3.045-0.175c0.325-0.032,1.834-0.285,1.987-0.289
						c0.964-0.23,1.914-0.515,2.854-0.838l-0.322-17.299l-34.948,0.648l0.134,7.169
						C253.614,261.883,253.643,261.938,253.514,261.809z"/>
				</g>
				<path style="fill:#F7C7AD;" d="M309.764,207.555c0.556,30.102-16.792,54.835-38.755,55.241
					c-21.957,0.409-40.211-23.665-40.77-53.767c-0.557-30.104,16.893-49.299,38.854-49.708
					C291.055,158.916,309.203,177.453,309.764,207.555z"/>
				<path style="opacity:0.5;fill:#FFFFFF;" d="M248.354,184.092c0.008-0.068,0.022-0.136,0.033-0.207
					c5.495-6.703,13.179-10.52,21.734-10.675c17.157-0.32,31.341,14.161,31.775,37.679c0.29,15.672-5.637,29.473-14.7,37.039
					C287.196,247.928,235.093,242.692,248.354,184.092z"/>
				<path style="fill:#EDEDED;" d="M264.596,250.922c-13.701-8.286-21.356-22.643-23.522-38.205
					c-2.033-14.617,1.394-30.894,10.474-42.65c3.155-4.075,7.218-7.557,11.743-10.177c-19.147,3.39-33.559,21.745-33.051,49.14
					c0.559,30.102,18.813,54.176,40.77,53.767c6.382-0.118,12.372-2.292,17.645-6.05
					C280.34,257.178,271.967,255.378,264.596,250.922z"/>
				<path style="fill:#D42A26;" d="M252.43,274.04c-3.675,2.088-12.796,6.385-28.488,8.452c0,0-36.606,2.049-34.35,68.452
					c0,0,27.795,11.921,83.257,10.788c55.459-0.923,82.795-13.869,82.795-13.869c-0.203-66.44-36.866-67.129-36.866-67.129
					c-15.76-1.484-25.033-5.44-28.783-7.392c0,0,20.345,43.167-17.248,83.052C272.747,356.395,235.004,318.917,252.43,274.04z"/>
				<path style="fill:#00B1C3;" d="M241.329,305.839c0.017,0.085,0.033,0.169,0.054,0.253c0.149,0.679,0.309,1.354,0.47,2.027
					c0.103-0.047,0.199-0.092,0.299-0.135C241.869,307.282,241.593,306.563,241.329,305.839z"/>
				<path style="fill:#AB251C;" d="M318.778,280.734c-15.76-1.484-25.033-5.44-28.783-7.392c0,0,20.345,43.167-17.248,83.052
					c0,0-37.743-37.478-20.317-82.354c-3.675,2.088-12.796,6.385-28.488,8.452c0,0-5.771,15.969,7.301,29.822
					c0,0,5.494-3.09,8.5-2.294l-10.469,7.992c0,0,3.061,30.164,36.202,43.856l16.653-0.309c0,0,28.248-14.406,32.526-51.22
					c0,0-2.701-2.948-10.936-5.349c0,0,4.99-1.802,10.817-1.057C314.535,303.935,325.217,298.069,318.778,280.734z"/>
				<path style="fill:#EDEDED;" d="M318.778,280.734c-15.76-1.484-25.033-5.44-28.783-7.392c0,0,20.345,43.167-17.248,83.052
					c0,0-0.371-0.366-1.011-1.06c-0.002,0.001-0.002,0.003-0.002,0.003c-4.706,1.55-9.763-1.028-13.641-3.504
					c-4.524-2.889-8.974-6.242-12.661-10.168c-3.693-3.936-7.689-8.846-8.581-14.352c-1.214-7.478,1.47-13.756,7.901-17.913
					c1.172-0.756,2.467-1.181,3.786-1.324c-1.486-10.422-0.8-21.958,3.893-34.037c-3.675,2.088-12.796,6.385-28.488,8.452
					c0,0-0.081,0.232-0.202,0.647c4.221-0.467,8.34-1.355,12.408,0.907c8.056,4.488,6.912,14.427,2.01,20.771
					c-2.038,2.635-5,4.582-8.162,6.099c0.398,0.468,0.811,0.934,1.247,1.397c0,0,5.494-3.09,8.5-2.294l-10.469,7.992
					c0,0,3.061,30.164,36.202,43.856l16.653-0.309c0,0,28.248-14.406,32.526-51.22c0,0-2.701-2.948-10.936-5.349
					c0,0,4.99-1.802,10.817-1.057C314.535,303.935,325.217,298.069,318.778,280.734z"/>
				<path style="fill:#EDEDED;" d="M318.778,280.734c-4.426-0.417-8.342-1.03-11.77-1.738c0.81,2.087,1.391,4.23,1.544,6.527
					c0.348,5.199-1.239,11.033-5.144,14.711c-2.39,2.253-5.102,3.828-7.992,4.934c-0.015,0.244-0.03,0.493-0.042,0.739
					c15.208,15.522-2.181,47.827-21.685,49.462c-0.313,0.346-0.622,0.685-0.943,1.025c0,0-0.046-0.047-0.11-0.117l0.1,5.458
					l9.392-0.175c0,0,28.248-14.406,32.526-51.22c0,0-2.701-2.948-10.936-5.349c0,0,4.99-1.802,10.817-1.057
					C314.535,303.935,325.217,298.069,318.778,280.734z"/>
				<path style="fill:#00B1C3;" d="M272.848,361.732"/>
				<polygon style="fill:#C6C6C6;" points="273.297,355.531 272.169,355.551 271.035,294.281 272.159,294.258 				"/>
				<path style="fill:#DEDEDE;" d="M252.43,274.04c0,0-15.811,6.034-7.754,25.64c0,0,1.403-20.97,27.275,1.845
					c0,0,1.369-17.645-8.414-21.202C263.537,280.322,252.517,278.871,252.43,274.04z"/>
				<path style="fill:#DEDEDE;" d="M290.365,273.337c0,0,14.424,5.173,6.785,23.022c0,0-8.238-18.215-25.199,5.165
					c0,0-2.824-19.331,7.542-21.496C279.493,280.028,290.453,278.166,290.365,273.337z"/>
				<path style="fill:#DC9F2E;" d="M245.734,160.216c0,0,27.485,37.534,59.614,46.33l-2.436,59.188c0,0,1.048,11.052-11.759,16.84
					c0,0,22.985,5.682,27.22-10.741l-3.164-72.153C315.209,199.679,308.225,124.608,245.734,160.216z"/>
				<path style="fill:#DC9F2E;" d="M240.915,283.504l-1.402-75.734c-2.03-32.744,24.927-36.584,24.927-36.584l-12.856-13.504
					c0,0-45.119,9.716-29.329,111.367C222.255,269.049,221.444,284.438,240.915,283.504z"/>
				<g>
					<path style="fill:#C6C6C6;" d="M251.182,163.981c0,0,0.945-0.766,2.778-1.849c0.925-0.525,2.053-1.172,3.414-1.781
						c0.675-0.32,1.41-0.621,2.184-0.947c0.784-0.299,1.612-0.607,2.496-0.878c0.877-0.294,1.813-0.536,2.784-0.793
						c0.482-0.136,0.991-0.217,1.498-0.322c0.509-0.108,1.025-0.208,1.558-0.277c2.12-0.35,4.415-0.446,6.787-0.333
						c0.597,0.047,1.195,0.096,1.798,0.144c0.603,0.098,1.204,0.196,1.814,0.294c0.613,0.082,1.213,0.243,1.82,0.401l0.915,0.239
						l0.456,0.122l0.443,0.158c0.6,0.218,1.196,0.436,1.799,0.655c0.595,0.226,1.164,0.532,1.743,0.805l0.867,0.423
						c0.286,0.147,0.551,0.328,0.829,0.49l1.649,1.011c2.069,1.518,4.058,3.173,5.655,5.099c0.409,0.473,0.822,0.938,1.218,1.416
						c0.352,0.501,0.708,0.997,1.058,1.493c0.346,0.501,0.715,0.98,1.03,1.487c0.299,0.517,0.592,1.028,0.886,1.537
						c0.293,0.505,0.58,1.01,0.867,1.508c0.239,0.52,0.479,1.031,0.72,1.538c0.457,1.022,0.966,1.992,1.295,3.002
						c0.362,0.992,0.713,1.96,1.052,2.894c0.283,0.949,0.527,1.876,0.779,2.759c0.232,0.887,0.511,1.717,0.648,2.542
						c0.157,0.818,0.302,1.593,0.445,2.319c0.13,0.729,0.292,1.4,0.368,2.038c0.077,0.635,0.145,1.222,0.207,1.747
						c0.131,1.052,0.196,1.883,0.257,2.446c0.051,0.563,0.076,0.863,0.076,0.863s-0.108-0.283-0.303-0.817
						c-0.188-0.535-0.482-1.314-0.816-2.309c-0.165-0.495-0.354-1.044-0.557-1.644c-0.226-0.591-0.466-1.228-0.727-1.912
						c-0.527-1.354-1.067-2.896-1.797-4.515c-0.356-0.813-0.71-1.665-1.103-2.531c-0.423-0.851-0.861-1.729-1.307-2.629
						c-0.419-0.918-0.968-1.79-1.483-2.701c-0.258-0.454-0.52-0.913-0.781-1.378c-0.297-0.441-0.597-0.885-0.896-1.337
						c-0.299-0.445-0.601-0.897-0.905-1.353c-0.308-0.452-0.669-0.863-1.001-1.302c-0.34-0.431-0.683-0.865-1.025-1.304
						c-0.374-0.406-0.747-0.814-1.125-1.223c-1.483-1.665-3.224-3.084-5.021-4.389l-1.411-0.883
						c-0.24-0.143-0.465-0.307-0.713-0.433l-0.74-0.367l-0.742-0.37c-0.247-0.119-0.482-0.268-0.745-0.356
						c-0.512-0.204-1.023-0.406-1.533-0.609c-2.065-0.707-4.171-1.277-6.282-1.501c-2.107-0.235-4.179-0.343-6.161-0.213
						c-1.977,0.103-3.865,0.305-5.594,0.619c-3.463,0.598-6.322,1.451-8.314,2.088c-0.993,0.341-1.778,0.598-2.304,0.806
						C251.466,163.874,251.182,163.981,251.182,163.981z"/>
				</g>
				<g>
					<path style="fill:#C6C6C6;" d="M249.837,169.826c0,0,0.865-0.766,2.58-1.852c0.855-0.535,1.919-1.167,3.195-1.797
						c1.277-0.612,2.747-1.28,4.429-1.825c1.676-0.554,3.542-1.059,5.581-1.33c2.032-0.288,4.233-0.412,6.508-0.157
						c2.267,0.229,4.628,0.737,6.858,1.705l0.845,0.339c0.275,0.134,0.541,0.279,0.811,0.419c0.542,0.284,1.097,0.556,1.618,0.868
						c1.008,0.695,2.081,1.32,2.993,2.141c0.462,0.394,0.946,0.776,1.391,1.191l1.275,1.301l0.63,0.65
						c0.204,0.223,0.378,0.465,0.568,0.699c0.371,0.466,0.742,0.933,1.109,1.398c0.387,0.452,0.686,0.959,1.014,1.445
						c0.316,0.488,0.631,0.974,0.943,1.461l0.236,0.362l0.199,0.376c0.137,0.252,0.268,0.501,0.404,0.752
						c0.263,0.496,0.524,0.992,0.786,1.485c0.27,0.485,0.482,0.991,0.693,1.489c0.215,0.499,0.424,0.991,0.632,1.48
						c0.199,0.494,0.427,0.967,0.593,1.457c0.165,0.488,0.33,0.969,0.49,1.448c0.159,0.475,0.313,0.944,0.467,1.406
						c0.151,0.464,0.314,0.915,0.415,1.379c0.232,0.908,0.455,1.787,0.666,2.634c0.105,0.423,0.205,0.835,0.304,1.24
						c0.071,0.405,0.147,0.809,0.219,1.194c0.134,0.781,0.261,1.519,0.378,2.211c0.267,1.382,0.356,2.61,0.459,3.612
						c0.106,1.002,0.157,1.794,0.205,2.329c0.036,0.537,0.058,0.821,0.058,0.821s-0.098-0.27-0.281-0.781
						c-0.168-0.51-0.436-1.255-0.734-2.209c-0.31-0.952-0.661-2.109-1.152-3.407c-0.232-0.651-0.481-1.344-0.742-2.073
						c-0.125-0.366-0.257-0.739-0.391-1.123c-0.151-0.374-0.306-0.758-0.468-1.152c-0.312-0.785-0.633-1.601-0.968-2.445
						c-0.333-0.846-0.754-1.68-1.145-2.557c-0.196-0.436-0.394-0.882-0.596-1.328c-0.198-0.448-0.453-0.874-0.683-1.319
						c-0.229-0.443-0.465-0.89-0.7-1.341c-0.23-0.455-0.463-0.912-0.747-1.343c-0.271-0.436-0.542-0.879-0.814-1.325l-0.406-0.671
						l-0.201-0.339l-0.232-0.318c-0.309-0.426-0.613-0.854-0.923-1.283c-0.313-0.431-0.593-0.885-0.951-1.273
						c-0.343-0.405-0.688-0.811-1.032-1.219c-0.172-0.201-0.336-0.412-0.52-0.606l-0.56-0.566l-1.127-1.129
						c-0.392-0.356-0.813-0.674-1.218-1.021c-0.779-0.726-1.689-1.253-2.542-1.864c-0.448-0.266-0.914-0.504-1.363-0.767
						c-0.227-0.125-0.449-0.259-0.682-0.377l-0.711-0.308c-0.479-0.195-0.937-0.439-1.423-0.598
						c-0.485-0.163-0.969-0.328-1.452-0.49c-0.48-0.163-0.983-0.247-1.475-0.373c-0.243-0.061-0.485-0.12-0.73-0.178
						c-0.248-0.039-0.495-0.079-0.737-0.119c-0.495-0.066-0.983-0.183-1.475-0.211c-0.49-0.041-0.981-0.082-1.462-0.125
						c-0.487-0.028-0.968-0.018-1.447-0.031c-0.476-0.023-0.947,0-1.416,0.024c-1.871,0.05-3.649,0.3-5.287,0.598
						c-1.643,0.283-3.13,0.688-4.453,1.052c-1.314,0.384-2.462,0.758-3.394,1.098c-0.929,0.354-1.666,0.624-2.163,0.839
						C250.102,169.713,249.837,169.826,249.837,169.826z"/>
				</g>
				<path style="fill:#C6C6C6;" d="M245.656,173.588c0,0-0.389,0.203-1.023,0.7c-0.638,0.492-1.506,1.296-2.463,2.426
					c-0.958,1.133-1.96,2.631-2.886,4.449c-0.902,1.835-1.724,3.994-2.331,6.427c-0.598,2.438-1.023,5.132-1.222,8.01
					c-0.182,2.877-0.168,5.933,0.016,9.091c0.184,3.311,0.29,6.602,0.372,10.018c0.079,3.402,0.162,6.856,0.246,10.311
					c0.039,3.45,0.079,6.909,0.118,10.31c0.04,3.401,0,6.749,0.008,9.988c0.012,3.238-0.068,6.371-0.107,9.34
					c-0.028,2.973-0.12,5.779-0.193,8.373c-0.145,5.184-0.356,9.511-0.524,12.537c-0.169,3.024-0.311,4.756-0.311,4.756
					s-0.207-1.723-0.488-4.742c-0.278-3.02-0.651-7.329-0.986-12.507c-0.169-2.591-0.364-5.395-0.505-8.358
					c-0.148-2.968-0.345-6.096-0.45-9.331c-0.115-3.241-0.278-6.585-0.366-9.985c-0.088-3.398-0.172-6.854-0.26-10.306
					c-0.047-3.455-0.093-6.911-0.135-10.309c-0.072-3.385-0.013-6.789-0.058-9.95c-0.025-0.827-0.025-1.647-0.01-2.468
					c0.005-0.812,0.028-1.621,0.077-2.422c0.09-1.596,0.258-3.158,0.465-4.672c0.208-1.514,0.494-2.979,0.809-4.383
					c0.363-1.398,0.741-2.741,1.209-4c0.882-2.528,2.029-4.731,3.239-6.534c1.209-1.812,2.503-3.213,3.673-4.228
					c1.161-1.031,2.219-1.65,2.941-2.033C245.239,173.717,245.656,173.588,245.656,173.588z"/>
				<path style="fill:#C6C6C6;" d="M237.024,177.508c0,0-0.357,0.188-0.949,0.651c-0.591,0.459-1.4,1.201-2.294,2.256
					c-0.885,1.05-1.817,2.446-2.679,4.134c-0.84,1.705-1.6,3.711-2.166,5.975c-0.557,2.262-0.951,4.769-1.134,7.441
					c-0.172,2.678-0.159,5.515,0.011,8.449c0.174,3.077,0.272,6.138,0.345,9.31c0.077,3.163,0.154,6.371,0.232,9.584
					c0.034,3.21,0.073,6.419,0.11,9.584c0.034,3.156,0,6.268,0.003,9.281c0.015,3.011-0.058,5.922-0.096,8.683
					c-0.027,2.761-0.112,5.371-0.181,7.781c-0.134,4.82-0.328,8.837-0.487,11.652c-0.068,1.405-0.162,2.51-0.207,3.265
					c-0.053,0.753-0.081,1.154-0.081,1.154s-0.042-0.401-0.121-1.151c-0.075-0.75-0.213-1.855-0.331-3.255
					c-0.262-2.807-0.606-6.813-0.917-11.625c-0.157-2.405-0.342-5.011-0.474-7.77c-0.135-2.756-0.317-5.664-0.414-8.674
					c-0.112-3.008-0.261-6.116-0.342-9.275c-0.081-3.162-0.165-6.368-0.243-9.581c-0.044-3.211-0.084-6.421-0.124-9.584
					c-0.068-3.141-0.011-6.306-0.053-9.246c-0.073-3.079,0.087-6.072,0.497-8.885c0.192-1.406,0.457-2.771,0.751-4.075
					c0.335-1.297,0.689-2.548,1.122-3.715c0.82-2.353,1.882-4.398,3.01-6.077c1.126-1.682,2.328-2.985,3.416-3.925
					c1.077-0.959,2.059-1.535,2.729-1.891C236.637,177.625,237.024,177.508,237.024,177.508z"/>
			</g>
			<g>
				<path style="fill:#BE7500;" d="M343.025,208.984c0.038,1.886-1.472,3.441-3.366,3.476l0,0c-1.897,0.034-3.462-1.466-3.5-3.35
					l0,0c-0.031-1.886,1.477-3.443,3.374-3.478l0,0C341.424,205.599,342.991,207.097,343.025,208.984L343.025,208.984z"/>
				<g>
					<path style="fill:#464F5B;" d="M312.102,199.736c-0.086-4.819,3.766-8.798,8.612-8.889l0,0
						c4.845-0.088,8.843,3.744,8.934,8.566l0.367,19.631c0.086,4.816-3.77,8.795-8.614,8.887l0,0
						c-4.844,0.091-8.845-3.743-8.934-8.562L312.102,199.736z"/>
					<path style="fill:#C6C6C6;" d="M322.682,200.009c3.88,4.616,4.495,10.052,3.524,15.827c-0.834,4.947-4.418,9.996-9.546,10.807
						c1.378,0.842,3,1.32,4.741,1.288c4.845-0.092,8.7-4.07,8.614-8.887l-0.367-19.631c-0.09-4.821-4.089-8.653-8.934-8.566
						c-3.787,0.072-6.959,2.523-8.126,5.889C316.285,196.213,320.164,197.011,322.682,200.009z"/>
					<path style="opacity:0.5;fill:#FFFFFF;" d="M315.209,199.679c-0.008-0.501,0.39-0.916,0.897-0.926l0,0
						c0.501-0.008,0.918,0.39,0.928,0.892l0.411,22.178c0.009,0.501-0.39,0.915-0.895,0.925l0,0c-0.504,0.009-0.921-0.39-0.933-0.89
						L315.209,199.679z"/>
				</g>
				<g>
					<path style="fill:#F9B233;" d="M328.398,195.878l0.493,26.739c5.867-1.732,10.092-7.182,9.973-13.555
						C338.747,202.682,334.32,197.395,328.398,195.878z"/>
					<path style="fill:#DADADA;" d="M334.807,214.246c-4.52-2.782-5.739-6.809-6.283-11.664l0.367,20.035
						c3.793-1.117,6.891-3.797,8.584-7.271C336.54,215.112,335.64,214.76,334.807,214.246z"/>
				</g>
				
					<path style="fill:none;stroke:#2C343F;stroke-width:3.2813;stroke-linecap:round;stroke-linejoin:round;stroke-miterlimit:10;" d="
					M333.135,216.439c0,0,5.894,45.744-42.367,45.336"/>
				<path style="fill:#232A33;" d="M292.512,261.925c0.042,2.209-1.728,4.032-3.947,4.073l-5.395,0.1
					c-2.222,0.04-4.057-1.715-4.095-3.924l0,0c-0.04-2.206,1.725-4.033,3.945-4.073l5.397-0.1
					C290.634,257.959,292.469,259.717,292.512,261.925L292.512,261.925z"/>
				<path style="fill:#BE7500;" d="M205.192,211.539c0.033,1.884,1.601,3.384,3.495,3.348l0,0c1.898-0.035,3.404-1.592,3.37-3.476
					l0,0c-0.034-1.886-1.599-3.386-3.497-3.35l0,0C206.665,208.094,205.157,209.651,205.192,211.539L205.192,211.539z"/>
				<g>
					<path style="fill:#464F5B;" d="M235.753,201.152c-0.09-4.82-4.087-8.653-8.933-8.563l0,0c-4.843,0.092-8.702,4.067-8.61,8.887
						l0.363,19.633c0.09,4.817,4.088,8.653,8.931,8.562l0,0c4.85-0.089,8.704-4.068,8.615-8.887L235.753,201.152z"/>
					<path style="fill:#C6C6C6;" d="M225.189,201.814c-3.703,4.758-4.12,10.211-2.934,15.947c1.014,4.913,4.786,9.826,9.942,10.445
						c-1.346,0.893-2.955,1.434-4.693,1.463c-4.843,0.092-8.841-3.744-8.931-8.562l-0.363-19.633
						c-0.092-4.819,3.767-8.795,8.61-8.887c3.787-0.068,7.049,2.263,8.339,5.584C231.444,197.785,227.596,198.729,225.189,201.814z"
						/>
					<path style="opacity:0.5;fill:#FFFFFF;" d="M232.648,201.208c-0.008-0.501-0.427-0.899-0.931-0.892l0,0
						c-0.506,0.012-0.908,0.427-0.9,0.928l0.413,22.178c0.009,0.501,0.424,0.9,0.93,0.892l0,0c0.501-0.013,0.905-0.423,0.899-0.929
						L232.648,201.208z"/>
				</g>
				<g>
					<path style="fill:#F9B233;" d="M219.327,197.902l0.493,26.739c-5.923-1.515-10.347-6.804-10.466-13.181
						C209.236,205.082,213.464,199.637,219.327,197.902z"/>
					<path style="fill:#DADADA;" d="M213.597,216.494c4.42-2.95,5.486-7.014,5.855-11.891l0.367,20.038
						c-3.825-0.98-7.022-3.544-8.84-6.95C211.904,217.426,212.787,217.035,213.597,216.494z"/>
				</g>
			</g>
		</g>
	</g>
</g>
</svg>
