 <svg  version="1.0" xmlns="http://www.w3.org/2000/svg"  width="300.000000pt" height="375.000000pt" viewBox="0 0 300.000000 375.000000"  preserveAspectRatio="xMidYMid meet">  <g transform="translate(0.000000,375.000000) scale(0.100000,-0.100000)" fill="#f3f7f7" stroke="none"> <path d="M2331 2249 c-7 -14 -27 -34 -44 -44 -52 -29 -77 -57 -77 -84 l0 -25 28 26 c15 14 41 33 59 42 39 19 56 47 51 84 l-4 27 -13 -26z"/> <path d="M2240 2244 c0 -9 -16 -34 -35 -55 -36 -40 -42 -62 -25 -89 8 -12 10 -9 10 12 0 18 13 42 35 67 35 39 44 64 25 76 -5 3 -10 -1 -10 -11z"/> <path d="M817 2109 c-102 -131 -66 -131 45 0 37 43 38 44 58 26 19 -18 21 -18 40 0 20 18 22 17 94 -58 40 -42 78 -77 85 -77 6 0 -26 47 -71 104 l-83 104 -23 -22 -24 -21 -18 23 c-10 12 -20 22 -22 21 -1 0 -38 -45 -81 -100z"/> <path d="M2341 2154 c-13 -13 -29 -24 -36 -24 -17 0 -85 -64 -85 -80 0 -6 14 0 30 14 17 14 49 30 70 36 42 11 66 41 53 65 -7 11 -13 9 -32 -11z"/> <path d="M676 2064 c-26 -30 -46 -57 -44 -60 7 -7 117 90 117 104 2 26 -26 10 -73 -44z"/> <path d="M945 2060 c-55 -56 -44 -64 28 -20 50 32 55 41 34 58 -10 9 -25 0 -62 -38z"/> <path d="M2365 2092 c-6 -5 -26 -15 -45 -22 -42 -16 -100 -57 -100 -71 0 -5 10 -3 23 5 12 7 36 17 52 20 39 9 72 31 85 56 11 20 2 27 -15 12z"/> <path d="M1223 2043 c-7 -2 -13 -16 -13 -29 0 -22 4 -25 27 -22 31 3 44 35 21 49 -14 10 -17 10 -35 2z"/> <path d="M413 2031 c-27 -12 -43 -41 -43 -80 0 -38 37 -68 95 -77 54 -8 80 -25 72 -48 -9 -22 -94 -22 -126 0 -19 14 -25 14 -32 3 -5 -8 -9 -21 -9 -30 0 -22 77 -43 136 -36 124 14 115 144 -10 162 -55 9 -79 25 -71 47 11 28 64 29 127 3 19 -8 36 31 20 47 -14 14 -132 20 -159 9z"/> <path d="M1759 2011 c-31 -32 -35 -50 -18 -84 18 -33 28 -38 132 -61 22 -5 28 -12 25 -29 -2 -18 -10 -23 -45 -25 -24 -2 -55 3 -72 12 -30 16 -33 15 -44 -17 -14 -39 122 -63 182 -32 30 15 41 33 41 69 0 40 -27 64 -88 77 -63 14 -82 24 -82 45 0 26 47 35 93 19 38 -13 43 -13 55 2 6 9 12 20 12 24 0 13 -62 29 -112 29 -41 0 -54 -5 -79 -29z"/> <path d="M674 1956 c-60 -27 -71 -128 -19 -173 41 -36 155 -27 155 12 0 20 -28 31 -43 16 -17 -17 -62 -13 -80 7 -10 10 -17 22 -17 25 0 4 34 7 75 7 69 0 75 2 75 20 0 37 -28 77 -61 89 -40 14 -47 13 -85 -3z m74 -42 c34 -24 26 -34 -28 -34 -54 0 -59 4 -33 32 20 22 32 23 61 2z"/> <path d="M1352 1955 c-69 -30 -77 -146 -12 -180 57 -30 149 -7 150 37 0 16 -41 19 -56 4 -35 -35 -84 -7 -84 48 0 17 5 37 12 44 17 17 67 15 74 -3 7 -19 54 -20 54 -2 0 21 -42 54 -75 61 -17 3 -44 -1 -63 -9z"/> <path d="M1565 1956 c-57 -25 -74 -113 -31 -163 22 -25 31 -28 85 -28 64 0 86 11 75 39 -5 13 -13 16 -28 11 -54 -17 -67 -17 -86 0 -11 10 -20 22 -20 27 0 4 34 8 75 8 67 0 75 2 75 19 0 40 -20 72 -55 86 -42 18 -51 18 -90 1z m79 -42 c26 -26 18 -34 -34 -34 -54 0 -59 4 -33 32 20 22 46 23 67 2z"/> <path d="M2068 1955 c-16 -9 -28 -11 -28 -5 0 5 -11 10 -25 10 l-25 0 0 -141 0 -140 27 3 c26 3 27 5 24 51 -2 44 9 61 24 37 9 -15 68 -12 92 5 27 19 46 76 38 114 -13 59 -78 93 -127 66z m60 -47 c7 -7 12 -29 12 -50 0 -46 -28 -67 -66 -49 -28 13 -39 47 -25 84 8 21 17 27 39 27 15 0 33 -5 40 -12z"/> <path d="M2420 1962 c-8 -2 -23 -11 -32 -20 -16 -14 -18 -13 -18 1 0 11 -8 17 -25 17 -25 0 -25 -1 -25 -84 0 -46 -3 -91 -6 -100 -5 -13 1 -16 25 -16 l31 0 0 64 c0 68 8 82 50 88 14 2 26 11 28 22 5 22 -8 35 -28 28z"/> <path d="M2521 1962 c-38 -11 -63 -54 -63 -103 1 -58 43 -99 102 -99 39 0 90 17 90 30 0 19 -29 31 -49 21 -28 -15 -57 -14 -75 5 -28 28 -17 34 60 34 l77 0 -7 33 c-12 60 -74 97 -135 79z m60 -42 c36 -20 23 -40 -26 -40 -48 0 -62 19 -27 39 22 13 29 13 53 1z"/> <path d="M850 1860 c0 -100 0 -100 25 -100 24 0 25 3 25 59 0 66 15 91 55 91 17 0 25 6 27 23 2 15 16 -9 42 -75 36 -90 42 -98 67 -98 24 0 29 8 63 95 20 52 36 97 36 101 0 3 -12 4 -27 2 -24 -3 -30 -10 -46 -65 -10 -35 -22 -63 -25 -63 -4 0 -16 28 -28 63 l-20 62 -53 3 c-39 2 -58 -1 -72 -14 -17 -16 -19 -16 -19 -1 0 11 -8 17 -25 17 -25 0 -25 0 -25 -100z"/> <path d="M1210 1860 l0 -100 30 0 30 0 0 100 0 100 -30 0 -30 0 0 -100z"/> <path d="M2225 1860 l0 -100 28 0 27 0 0 100 0 100 -27 0 -28 0 0 -100z"/> <path d="M562 1703 c-116 -2 -181 -7 -177 -13 8 -12 1321 -14 1329 -2 11 17 -549 24 -1152 15z"/> <path d="M2293 1702 c-49 -2 -73 -7 -73 -15 0 -9 52 -11 212 -9 196 3 229 5 217 16 -6 5 -272 12 -356 8z"/> </g> </svg> 