<svg xmlns="http://www.w3.org/2000/svg" version="1.0" preserveAspectRatio="xMidYMid meet" viewBox="176.38 713 1098.62 281.68">
<metadata>
Created by potrace 1.16, written by Peter Selinger 2001-2019
</metadata>
<g transform="translate(0.000000,1800.000000) scale(0.100000,-0.100000)" fill="#000000" stroke="none">
<path d="M11211 10818 c-47 -109 -111 -164 -304 -263 -68 -35 -118 -69 -162 -112 -36 -35 -65 -66 -65 -70 0 -5 -11 -20 -24 -34 -48 -51 -56 -81 -56 -199 0 -67 4 -110 10 -110 6 0 10 7 10 15 0 9 7 28 17 43 28 45 185 191 228 211 22 10 58 26 80 36 48 22 156 88 206 126 80 62 129 173 129 293 0 67 -16 116 -39 116 -4 0 -18 -24 -30 -52z"/>
<path d="M10777 10804 c-4 -4 -7 -23 -7 -43 0 -59 -45 -133 -124 -203 -159 -141 -183 -170 -196 -234 -14 -66 -4 -161 24 -226 25 -58 36 -46 36 36 0 75 28 162 63 197 8 8 21 27 29 42 8 16 59 74 114 130 56 56 106 112 112 124 32 59 -13 214 -51 177z"/>
<path d="M4274 10553 c-39 -45 -231 -287 -369 -467 -154 -199 -159 -206 -229 -296 -36 -46 -66 -90 -66 -97 0 -33 85 -4 170 59 56 41 218 202 302 299 26 30 58 68 72 84 15 17 54 65 89 107 34 42 69 79 77 83 14 6 22 -1 137 -127 19 -21 39 -38 44 -38 6 0 52 41 104 91 61 59 100 89 109 86 8 -3 29 -25 46 -49 17 -24 73 -88 123 -142 51 -55 105 -116 120 -135 15 -20 74 -82 130 -139 96 -97 152 -142 240 -191 21 -12 49 -28 62 -37 13 -8 26 -11 29 -6 5 8 -113 168 -243 328 -35 44 -76 95 -91 114 -15 19 -48 59 -71 89 -59 73 -121 151 -199 252 -88 115 -130 159 -151 159 -9 0 -35 -19 -56 -42 -96 -104 -121 -128 -135 -128 -9 0 -37 23 -64 52 -105 112 -122 128 -135 128 -7 0 -27 -17 -45 -37z"/>
<path d="M11305 10398 c-33 -57 -81 -93 -198 -151 -63 -32 -117 -57 -121 -57 -37 0 -230 -169 -258 -225 -35 -69 -48 -108 -48 -141 0 -39 21 -43 30 -6 7 28 128 152 149 152 9 0 25 7 35 15 11 8 26 15 34 15 8 0 44 14 79 30 34 17 70 30 77 30 8 0 17 4 21 10 4 6 14 5 29 -1 18 -8 30 -6 57 10 19 11 44 25 57 31 13 6 30 17 38 25 8 8 20 18 27 22 7 5 27 25 45 46 28 33 32 44 32 98 0 114 -45 165 -85 97z"/>
<path d="M3405 10078 c-103 -122 -112 -133 -147 -179 -14 -19 -44 -55 -67 -80 -22 -24 -41 -47 -41 -50 0 -3 -11 -19 -26 -35 -14 -16 -29 -37 -35 -46 -23 -42 36 2 346 255 65 53 72 58 128 100 43 33 48 63 15 94 -26 23 -61 43 -77 43 -5 0 -49 -46 -96 -102z"/>
<path d="M4683 10053 c-74 -75 -252 -287 -291 -346 -14 -20 -22 -40 -18 -44 11 -11 107 18 160 49 28 17 84 55 124 85 61 47 77 55 102 49 21 -4 37 0 51 12 32 27 99 120 99 137 0 30 -110 125 -144 125 -10 0 -47 -30 -83 -67z"/>
<path d="M11365 10035 c-27 -19 -62 -37 -77 -40 -15 -4 -30 -11 -33 -16 -4 -5 -14 -9 -24 -9 -10 0 -32 -7 -47 -15 -16 -8 -38 -15 -50 -15 -12 0 -42 -11 -68 -25 -26 -14 -59 -25 -75 -25 -25 0 -111 -53 -111 -69 0 -4 -21 -20 -47 -36 -27 -18 -58 -50 -76 -78 -16 -26 -37 -52 -48 -58 -25 -13 -25 -49 -1 -49 11 0 27 9 37 20 40 44 123 74 312 110 56 10 123 29 149 41 98 47 217 186 226 264 4 39 -9 39 -67 0z"/>
<path d="M5883 9800 c-59 -26 -85 -71 -80 -136 6 -87 48 -124 140 -124 95 0 160 57 160 141 0 70 -76 139 -152 139 -14 0 -45 -9 -68 -20z"/>
<path d="M2175 9800 c-123 -16 -241 -73 -313 -149 -80 -84 -113 -200 -92 -318 16 -90 41 -138 104 -199 39 -37 71 -58 122 -76 61 -23 97 -33 234 -69 19 -5 73 -15 120 -23 195 -31 275 -114 208 -213 -37 -53 -97 -73 -225 -73 -138 0 -249 26 -366 86 -67 34 -92 42 -106 35 -10 -6 -36 -46 -59 -91 -48 -92 -46 -104 16 -145 75 -50 201 -89 387 -120 139 -23 195 -19 360 27 122 35 210 107 261 214 31 65 34 81 34 159 0 76 -4 95 -30 150 -17 35 -48 79 -71 100 -44 40 -148 93 -208 106 -20 5 -65 15 -101 24 -36 9 -99 22 -140 30 -191 35 -229 55 -260 133 -16 40 0 100 34 129 94 82 363 67 544 -29 29 -15 59 -28 67 -28 15 0 75 95 96 154 13 37 13 38 -21 66 -102 85 -407 146 -595 120z"/>
<path d="M8740 9800 c-131 -16 -240 -63 -312 -135 -110 -108 -142 -279 -80 -417 65 -143 159 -194 487 -262 206 -43 257 -65 283 -120 27 -54 -6 -129 -71 -163 -113 -58 -383 -24 -539 68 -28 17 -62 32 -77 35 -24 5 -29 0 -69 -86 -24 -51 -42 -101 -40 -113 7 -46 199 -122 385 -152 168 -27 300 -18 438 31 112 40 199 110 235 189 45 101 45 246 0 335 -32 63 -104 125 -183 158 -109 45 -115 46 -417 104 -112 21 -180 78 -180 149 0 58 22 91 78 122 45 25 59 27 158 27 91 0 123 -4 194 -27 47 -15 106 -39 131 -55 75 -45 81 -43 144 69 40 71 43 95 14 122 -27 25 -151 74 -249 100 -90 23 -240 32 -330 21z"/>
<path d="M3347 9425 c-186 -31 -312 -150 -362 -341 -17 -66 -20 -187 -5 -262 32 -171 181 -323 353 -361 126 -29 181 -31 278 -12 131 27 181 46 233 93 63 55 62 76 -12 156 -32 34 -63 62 -69 62 -5 0 -27 -15 -49 -32 -57 -48 -92 -65 -157 -77 -137 -25 -274 47 -309 163 -20 66 -13 68 271 61 355 -8 390 -8 407 5 30 25 13 203 -27 295 -25 56 -89 134 -142 173 -62 46 -117 67 -214 81 -85 13 -95 13 -196 -4z m188 -196 c87 -38 147 -116 130 -169 -6 -19 -15 -20 -188 -22 -190 -1 -218 0 -225 7 -2 2 -1 25 3 50 16 111 168 183 280 134z"/>
<path d="M6642 9429 c-197 -26 -340 -131 -402 -294 -28 -75 -39 -240 -20 -324 27 -124 93 -221 195 -286 104 -66 269 -96 405 -72 47 8 105 23 130 32 81 32 174 116 197 180 15 43 1 56 -107 100 l-80 33 -41 -49 c-57 -68 -105 -91 -193 -92 -111 -1 -175 39 -227 142 -33 63 -34 213 -3 281 45 97 121 144 224 138 82 -5 135 -30 171 -82 63 -91 45 -83 145 -62 110 22 118 28 110 79 -13 82 -120 204 -215 243 -78 32 -195 46 -289 33z"/>
<path d="M7635 9429 c-178 -29 -310 -136 -367 -297 -40 -113 -34 -304 13 -403 47 -96 125 -186 191 -220 145 -74 346 -88 511 -35 119 38 177 81 177 131 0 26 -99 145 -121 145 -9 0 -34 -13 -55 -29 -78 -56 -112 -66 -214 -66 -108 1 -141 13 -196 73 -38 42 -69 105 -61 125 3 8 23 17 44 20 46 7 439 1 539 -9 65 -5 74 -4 93 15 17 17 21 33 21 79 0 144 -46 266 -131 350 -76 76 -135 103 -265 122 -79 11 -109 11 -179 -1z m179 -200 c22 -6 56 -29 83 -55 40 -41 44 -48 41 -87 l-3 -42 -207 -3 -208 -2 0 25 c0 58 68 148 124 164 44 13 124 13 170 0z"/>
<path d="M12180 9429 c-118 -19 -180 -49 -250 -119 -118 -117 -160 -251 -139 -436 16 -144 49 -214 141 -303 71 -68 154 -102 300 -122 204 -29 468 62 468 163 0 19 -13 43 -42 76 -73 80 -81 84 -115 52 -132 -122 -324 -127 -431 -10 -40 42 -65 106 -52 131 11 20 16 20 334 17 367 -3 356 -6 356 71 -1 151 -47 279 -129 361 -70 70 -135 99 -261 119 -74 12 -103 12 -180 0z m190 -206 c68 -36 109 -87 113 -138 l2 -40 -200 -6 c-110 -3 -206 -4 -212 -1 -7 2 -13 17 -13 33 0 34 14 61 55 108 66 74 165 91 255 44z"/>
<path d="M10015 9424 c-61 -15 -160 -71 -178 -101 -15 -25 -26 -13 -29 35 l-3 47 -115 3 c-63 1 -121 -2 -129 -7 -18 -12 -19 -1285 0 -1307 15 -18 219 -20 237 -2 9 9 12 73 12 225 0 169 3 215 13 219 8 3 37 -11 66 -30 122 -83 283 -84 434 -3 127 67 211 217 223 399 12 178 -32 305 -141 413 -81 81 -146 107 -275 111 -52 1 -104 1 -115 -2z m102 -210 c72 -25 99 -49 133 -118 26 -56 30 -75 30 -150 0 -146 -50 -237 -148 -271 -120 -40 -238 9 -295 125 -19 38 -22 61 -21 150 0 93 3 111 27 157 29 57 60 83 127 106 58 21 88 21 147 1z"/>
<path d="M11624 9420 c-68 -14 -131 -49 -188 -105 -30 -30 -56 -51 -59 -49 -3 3 -3 32 0 66 5 45 2 62 -8 69 -22 14 -213 11 -231 -3 -14 -12 -16 -68 -19 -473 l-4 -460 130 0 130 0 0 245 c1 135 5 261 9 280 28 118 102 171 256 184 47 4 88 13 92 19 10 16 10 199 0 214 -11 17 -59 23 -108 13z"/>
<path d="M4496 9400 c-29 -12 -71 -41 -102 -71 -61 -60 -78 -58 -68 7 10 69 1 74 -132 74 -72 0 -115 -4 -120 -11 -12 -19 -13 -890 -1 -916 10 -22 15 -23 128 -23 98 0 120 3 127 16 5 9 7 110 4 228 -5 254 4 335 45 378 54 58 108 81 197 86 44 2 88 8 98 13 12 6 18 29 23 84 5 49 11 75 19 72 15 -5 103 -185 172 -352 31 -77 63 -153 70 -170 7 -16 26 -64 43 -105 44 -113 91 -213 109 -232 13 -15 33 -18 134 -18 l118 0 20 43 c36 78 218 536 264 667 13 36 38 98 55 139 43 96 40 99 -107 103 -128 3 -132 1 -154 -77 -10 -36 -80 -244 -145 -432 -14 -40 -31 -81 -39 -90 -11 -16 -14 -16 -27 -3 -8 8 -31 65 -52 125 -21 61 -42 119 -48 129 -5 11 -31 82 -57 157 -64 189 -58 182 -166 190 -49 4 -150 7 -224 8 -110 0 -144 -3 -184 -19z"/>
<path d="M5915 9410 l-90 -5 -3 -445 c-2 -315 1 -453 9 -472 l11 -28 107 0 c58 0 113 4 121 10 12 7 15 75 16 457 1 246 -3 455 -7 464 -11 21 -50 25 -164 19z"/>
<path d="M10691 9396 c-8 -9 -10 -142 -9 -472 l3 -459 125 0 125 0 3 459 c1 330 -1 463 -9 472 -8 10 -40 14 -119 14 -79 0 -111 -4 -119 -14z"/>
<path d="M3850 8189 c-118 -4 -397 -12 -620 -18 -883 -22 -1250 -37 -1250 -51 0 -17 66 -21 540 -30 272 -5 576 -14 675 -19 286 -16 2205 -24 2900 -12 1398 24 1896 39 1934 61 30 16 -290 31 -1109 51 -217 5 -514 13 -660 19 -304 10 -2088 10 -2410 -1z"/>
<path d="M10745 8170 l-80 -5 -3 -41 c-5 -72 -2 -73 235 -68 114 2 339 9 498 15 160 5 434 14 610 20 333 10 528 28 450 42 -22 4 -193 12 -380 18 -186 6 -343 13 -349 16 -11 8 -870 10 -981 3z"/>
</g>
</svg>